<svg width="40" height="40" viewBox="0 0 40 40" fill="none" xmlns="http://www.w3.org/2000/svg">
<rect width="40" height="40" fill="#323232"/>
<path d="M-1806 -2322C-1806 -2323.1 -1805.1 -2324 -1804 -2324H9540C9541.1 -2324 9542 -2323.1 9542 -2322V9192C9542 9193.1 9541.1 9194 9540 9194H-1804C-1805.1 9194 -1806 9193.1 -1806 9192V-2322Z" fill="#444444"/>
<path d="M-1804 -2323H9540V-2325H-1804V-2323ZM9541 -2322V9192H9543V-2322H9541ZM9540 9193H-1804V9195H9540V9193ZM-1805 9192V-2322H-1807V9192H-1805ZM-1804 9193C-1804.55 9193 -1805 9192.55 -1805 9192H-1807C-1807 9193.66 -1805.66 9195 -1804 9195V9193ZM9541 9192C9541 9192.55 9540.55 9193 9540 9193V9195C9541.66 9195 9543 9193.66 9543 9192H9541ZM9540 -2323C9540.55 -2323 9541 -2322.55 9541 -2322H9543C9543 -2323.66 9541.66 -2325 9540 -2325V-2323ZM-1804 -2325C-1805.66 -2325 -1807 -2323.66 -1807 -2322H-1805C-1805 -2322.55 -1804.55 -2323 -1804 -2323V-2325Z" fill="white" fill-opacity="0.1"/>
<g clip-path="url(#clip0_3253_4736)">
<rect width="1440" height="6510" transform="translate(-1334 -801)" fill="white"/>
<g clip-path="url(#clip1_3253_4736)" filter="url(#filter0_d_3253_4736)">
<rect width="1440" height="130" transform="translate(-1334 -24)" fill="white"/>
<path d="M0 20C0 8.95431 8.95431 0 20 0C31.0457 0 40 8.95431 40 20C40 31.0457 31.0457 40 20 40C8.95431 40 0 31.0457 0 20Z" fill="#1A1A1A"/>
<mask id="mask0_3253_4736" style="mask-type:alpha" maskUnits="userSpaceOnUse" x="8" y="8" width="24" height="24">
<rect x="8" y="8" width="24" height="24" fill="#D9D9D9"/>
</mask>
<g mask="url(#mask0_3253_4736)">
<path d="M20 28C17.6628 28 15.7452 27.7023 14.247 27.1068C12.749 26.5113 12 25.7449 12 24.8077V15C12 14.1692 12.7798 13.4615 14.3395 12.877C15.899 12.2923 17.7858 12 20 12C22.2142 12 24.101 12.2923 25.6605 12.877C27.2202 13.4615 28 14.1692 28 15V24.8077C28 25.7449 27.251 26.5113 25.753 27.1068C24.2548 27.7023 22.3372 28 20 28ZM20 16.8905C21.432 16.8905 22.8756 16.6908 24.3307 16.2913C25.7859 15.8919 26.6564 15.457 26.9423 14.9865C26.6693 14.4903 25.8125 14.0352 24.372 13.6212C22.9317 13.2071 21.4743 13 20 13C18.5475 13 17.0921 13.1997 15.6338 13.599C14.1754 13.9983 13.3039 14.4352 13.0193 14.9095C13.2911 15.4095 14.1497 15.8647 15.5952 16.275C17.0408 16.6853 18.509 16.8905 20 16.8905ZM20 21.923C20.6872 21.923 21.3622 21.8897 22.025 21.823C22.6878 21.7563 23.3215 21.6573 23.926 21.526C24.5305 21.3945 25.092 21.2307 25.6105 21.0345C26.1292 20.8385 26.5923 20.6174 27 20.3713V16.275C26.5923 16.5212 26.1292 16.7423 25.6105 16.9385C25.092 17.1347 24.5305 17.2984 23.926 17.4297C23.3215 17.5612 22.6878 17.6603 22.025 17.727C21.3622 17.7937 20.6872 17.827 20 17.827C19.2872 17.827 18.5943 17.7904 17.9213 17.7173C17.2481 17.6443 16.6125 17.542 16.0145 17.4105C15.4163 17.2792 14.8622 17.1186 14.352 16.9288C13.8417 16.7391 13.391 16.5212 13 16.275V20.3713C13.391 20.6174 13.8417 20.8353 14.352 21.025C14.8622 21.2147 15.4163 21.3752 16.0145 21.5068C16.6125 21.6381 17.2481 21.7403 17.9213 21.8135C18.5943 21.8865 19.2872 21.923 20 21.923ZM20 27C20.8563 27 21.6707 26.9513 22.4432 26.8538C23.2157 26.7564 23.9097 26.6183 24.525 26.4395C25.1403 26.2607 25.6634 26.0472 26.0943 25.799C26.5251 25.551 26.827 25.2828 27 24.9943V21.3713C26.5923 21.6174 26.1292 21.8385 25.6105 22.0345C25.092 22.2307 24.5305 22.3945 23.926 22.526C23.3215 22.6573 22.6878 22.7563 22.025 22.823C21.3622 22.8897 20.6872 22.923 20 22.923C19.2872 22.923 18.5943 22.8865 17.9213 22.8135C17.2481 22.7403 16.6125 22.6381 16.0145 22.5068C15.4163 22.3752 14.8622 22.2147 14.352 22.025C13.8417 21.8353 13.391 21.6174 13 21.3713V25C13.173 25.3013 13.474 25.5718 13.903 25.8115C14.3318 26.0513 14.8539 26.2607 15.4692 26.4395C16.0846 26.6183 16.7794 26.7564 17.5538 26.8538C18.3282 26.9513 19.1437 27 20 27Z" fill="white"/>
</g>
</g>
</g>
<defs>
<filter id="filter0_d_3253_4736" x="-1342" y="-28" width="1456" height="146" filterUnits="userSpaceOnUse" color-interpolation-filters="sRGB">
<feFlood flood-opacity="0" result="BackgroundImageFix"/>
<feColorMatrix in="SourceAlpha" type="matrix" values="0 0 0 0 0 0 0 0 0 0 0 0 0 0 0 0 0 0 127 0" result="hardAlpha"/>
<feOffset dy="4"/>
<feGaussianBlur stdDeviation="4"/>
<feComposite in2="hardAlpha" operator="out"/>
<feColorMatrix type="matrix" values="0 0 0 0 0 0 0 0 0 0 0 0 0 0 0 0 0 0 0.1 0"/>
<feBlend mode="normal" in2="BackgroundImageFix" result="effect1_dropShadow_3253_4736"/>
<feBlend mode="normal" in="SourceGraphic" in2="effect1_dropShadow_3253_4736" result="shape"/>
</filter>
<clipPath id="clip0_3253_4736">
<rect width="1440" height="6510" fill="white" transform="translate(-1334 -801)"/>
</clipPath>
<clipPath id="clip1_3253_4736">
<rect width="1440" height="130" fill="white" transform="translate(-1334 -24)"/>
</clipPath>
</defs>
</svg>
