<svg width="40" height="40" viewBox="0 0 40 40" fill="none" xmlns="http://www.w3.org/2000/svg">
<g id="Frame 33902">
<path d="M0 20C0 8.95431 8.95431 0 20 0C31.0457 0 40 8.95431 40 20C40 31.0457 31.0457 40 20 40C8.95431 40 0 31.0457 0 20Z" fill="#1A1A1A"/>
<g id="apartment">
<mask id="mask0_3254_6261" style="mask-type:alpha" maskUnits="userSpaceOnUse" x="8" y="8" width="24" height="24">
<rect id="Bounding box" x="8" y="8" width="24" height="24" fill="#D9D9D9"/>
</mask>
<g mask="url(#mask0_3254_6261)">
<path id="apartment_2" d="M11.4999 28.1535V15.1535H15.4999V11.1535H24.4999V19.1535H28.4999V28.1535H21.4999V24.1535H18.4999V28.1535H11.4999ZM12.4999 27.1535H15.4999V24.1535H12.4999V27.1535ZM12.4999 23.1535H15.4999V20.1535H12.4999V23.1535ZM12.4999 19.1535H15.4999V16.1535H12.4999V19.1535ZM16.4999 23.1535H19.4999V20.1535H16.4999V23.1535ZM16.4999 19.1535H19.4999V16.1535H16.4999V19.1535ZM16.4999 15.1535H19.4999V12.1535H16.4999V15.1535ZM20.4999 23.1535H23.4999V20.1535H20.4999V23.1535ZM20.4999 19.1535H23.4999V16.1535H20.4999V19.1535ZM20.4999 15.1535H23.4999V12.1535H20.4999V15.1535ZM24.4999 27.1535H27.4999V24.1535H24.4999V27.1535ZM24.4999 23.1535H27.4999V20.1535H24.4999V23.1535Z" fill="white"/>
</g>
</g>
</g>
</svg>
