<svg width="40" height="40" viewBox="0 0 40 40" fill="none" xmlns="http://www.w3.org/2000/svg">
<g id="Frame 33902">
<path d="M0 20C0 8.95431 8.95431 0 20 0C31.0457 0 40 8.95431 40 20C40 31.0457 31.0457 40 20 40C8.95431 40 0 31.0457 0 20Z" fill="#1A1A1A"/>
<g id="apps">
<mask id="mask0_3254_6279" style="mask-type:alpha" maskUnits="userSpaceOnUse" x="8" y="8" width="24" height="24">
<rect id="Bounding box" x="8" y="8" width="24" height="24" fill="#D9D9D9"/>
</mask>
<g mask="url(#mask0_3254_6279)">
<path id="apps_2" d="M14 27.231C13.6615 27.231 13.3718 27.1105 13.1308 26.8695C12.8898 26.6285 12.7693 26.3388 12.7693 26.0003C12.7693 25.6618 12.8898 25.372 13.1308 25.131C13.3718 24.89 13.6615 24.7695 14 24.7695C14.3385 24.7695 14.6283 24.89 14.8693 25.131C15.1103 25.372 15.2308 25.6618 15.2308 26.0003C15.2308 26.3388 15.1103 26.6285 14.8693 26.8695C14.6283 27.1105 14.3385 27.231 14 27.231ZM20 27.231C19.6615 27.231 19.3718 27.1105 19.1308 26.8695C18.8898 26.6285 18.7693 26.3388 18.7693 26.0003C18.7693 25.6618 18.8898 25.372 19.1308 25.131C19.3718 24.89 19.6615 24.7695 20 24.7695C20.3385 24.7695 20.6283 24.89 20.8693 25.131C21.1103 25.372 21.2308 25.6618 21.2308 26.0003C21.2308 26.3388 21.1103 26.6285 20.8693 26.8695C20.6283 27.1105 20.3385 27.231 20 27.231ZM26 27.231C25.6615 27.231 25.3718 27.1105 25.1308 26.8695C24.8898 26.6285 24.7693 26.3388 24.7693 26.0003C24.7693 25.6618 24.8898 25.372 25.1308 25.131C25.3718 24.89 25.6615 24.7695 26 24.7695C26.3385 24.7695 26.6283 24.89 26.8693 25.131C27.1103 25.372 27.2308 25.6618 27.2308 26.0003C27.2308 26.3388 27.1103 26.6285 26.8693 26.8695C26.6283 27.1105 26.3385 27.231 26 27.231ZM14 21.231C13.6615 21.231 13.3718 21.1105 13.1308 20.8695C12.8898 20.6285 12.7693 20.3388 12.7693 20.0003C12.7693 19.6618 12.8898 19.372 13.1308 19.131C13.3718 18.89 13.6615 18.7695 14 18.7695C14.3385 18.7695 14.6283 18.89 14.8693 19.131C15.1103 19.372 15.2308 19.6618 15.2308 20.0003C15.2308 20.3388 15.1103 20.6285 14.8693 20.8695C14.6283 21.1105 14.3385 21.231 14 21.231ZM20 21.231C19.6615 21.231 19.3718 21.1105 19.1308 20.8695C18.8898 20.6285 18.7693 20.3388 18.7693 20.0003C18.7693 19.6618 18.8898 19.372 19.1308 19.131C19.3718 18.89 19.6615 18.7695 20 18.7695C20.3385 18.7695 20.6283 18.89 20.8693 19.131C21.1103 19.372 21.2308 19.6618 21.2308 20.0003C21.2308 20.3388 21.1103 20.6285 20.8693 20.8695C20.6283 21.1105 20.3385 21.231 20 21.231ZM26 21.231C25.6615 21.231 25.3718 21.1105 25.1308 20.8695C24.8898 20.6285 24.7693 20.3388 24.7693 20.0003C24.7693 19.6618 24.8898 19.372 25.1308 19.131C25.3718 18.89 25.6615 18.7695 26 18.7695C26.3385 18.7695 26.6283 18.89 26.8693 19.131C27.1103 19.372 27.2308 19.6618 27.2308 20.0003C27.2308 20.3388 27.1103 20.6285 26.8693 20.8695C26.6283 21.1105 26.3385 21.231 26 21.231ZM14 15.231C13.6615 15.231 13.3718 15.1105 13.1308 14.8695C12.8898 14.6285 12.7693 14.3388 12.7693 14.0003C12.7693 13.6618 12.8898 13.372 13.1308 13.131C13.3718 12.89 13.6615 12.7695 14 12.7695C14.3385 12.7695 14.6283 12.89 14.8693 13.131C15.1103 13.372 15.2308 13.6618 15.2308 14.0003C15.2308 14.3388 15.1103 14.6285 14.8693 14.8695C14.6283 15.1105 14.3385 15.231 14 15.231ZM20 15.231C19.6615 15.231 19.3718 15.1105 19.1308 14.8695C18.8898 14.6285 18.7693 14.3388 18.7693 14.0003C18.7693 13.6618 18.8898 13.372 19.1308 13.131C19.3718 12.89 19.6615 12.7695 20 12.7695C20.3385 12.7695 20.6283 12.89 20.8693 13.131C21.1103 13.372 21.2308 13.6618 21.2308 14.0003C21.2308 14.3388 21.1103 14.6285 20.8693 14.8695C20.6283 15.1105 20.3385 15.231 20 15.231ZM26 15.231C25.6615 15.231 25.3718 15.1105 25.1308 14.8695C24.8898 14.6285 24.7693 14.3388 24.7693 14.0003C24.7693 13.6618 24.8898 13.372 25.1308 13.131C25.3718 12.89 25.6615 12.7695 26 12.7695C26.3385 12.7695 26.6283 12.89 26.8693 13.131C27.1103 13.372 27.2308 13.6618 27.2308 14.0003C27.2308 14.3388 27.1103 14.6285 26.8693 14.8695C26.6283 15.1105 26.3385 15.231 26 15.231Z" fill="white"/>
</g>
</g>
</g>
</svg>
